<svg xmlns="http://www.w3.org/2000/svg" width="1100" height="560" viewBox="0 0 1100 560"><rect width="1100" height="560" fill="#e8eaed"/><text x="40" y="30" font-family="Arial" font-size="14" fill="#202124" font-weight="bold" text-anchor="start">Screen 10 — Notifications (bell + dropdown panel)  [A2 new feature]</text><rect x="40" y="48" width="1020" height="480" rx="6" fill="#FFFFFF" stroke="#000" stroke-width="1.5"/><rect x="64" y="72" width="972" height="44" rx="4" fill="#FFFFFF" stroke="#9aa0a6" stroke-width="1.5"/><rect x="80" y="82" width="70" height="24" rx="4" fill="#f1f3f4" stroke="#9aa0a6" stroke-width="1.5"/><text x="115" y="99" font-family="Arial" font-size="12" fill="#5f6368" text-anchor="middle">[Logo]</text><text x="740" y="99" font-family="Arial" font-size="13" fill="#5f6368" text-anchor="start">Browse</text><text x="815" y="99" font-family="Arial" font-size="13" fill="#5f6368" text-anchor="start">My Reviews</text><text x="925" y="99" font-family="Arial" font-size="18" fill="#202124" text-anchor="start">⌂</text><path d="M918 86 a10 10 0 0 1 20 0 c0 8 4 10 4 12 h-28 c0 -2 4 -4 4 -12 z" fill="none" stroke="#202124" stroke-width="1.6"/><path d="M924 100 a4 3 0 0 0 8 0" fill="none" stroke="#202124" stroke-width="1.6"/><circle cx="940" cy="82" r="8" fill="#5f6368"/><text x="940" y="85" font-family="Arial" font-size="10" fill="#fff" font-weight="bold" text-anchor="middle">3</text><text x="1000" y="99" font-family="Arial" font-size="13" fill="#5f6368" text-anchor="middle">Logout</text><rect x="812" y="124" width="224" height="300" rx="6" fill="#FFFFFF" stroke="#000" stroke-width="1.5"/><text x="826" y="150" font-family="Arial" font-size="13" fill="#202124" font-weight="bold" text-anchor="start">Notifications</text><line x1="812" y1="162" x2="1036" y2="162" stroke="#9aa0a6"/><rect x="813" y="162" width="222" height="72" rx="0" fill="#FFFFFF" stroke="none" stroke-width="0"/><line x1="812" y1="234" x2="1036" y2="234" stroke="#9aa0a6"/><text x="826" y="186" font-family="Arial" font-size="12" fill="#202124" text-anchor="start">Your review of Saigon &amp; Smoke </text><text x="826" y="202" font-family="Arial" font-size="12" fill="#202124" text-anchor="start">was published.</text><text x="826" y="222" font-family="Arial" font-size="11" fill="#5f6368" text-anchor="start">2h ago</text><text x="1020" y="222" font-family="Arial" font-size="11" fill="#1a73e8" text-anchor="end">Mark read</text><rect x="813" y="234" width="222" height="72" rx="0" fill="#FFFFFF" stroke="none" stroke-width="0"/><line x1="812" y1="306" x2="1036" y2="306" stroke="#9aa0a6"/><text x="826" y="258" font-family="Arial" font-size="12" fill="#202124" text-anchor="start">Lotus Cantina responded to you</text><text x="826" y="274" font-family="Arial" font-size="12" fill="#202124" text-anchor="start">r review.</text><text x="826" y="294" font-family="Arial" font-size="11" fill="#5f6368" text-anchor="start">1d ago</text><text x="1020" y="294" font-family="Arial" font-size="11" fill="#1a73e8" text-anchor="end">Mark read</text><rect x="813" y="306" width="222" height="72" rx="0" fill="#fafafa" stroke="none" stroke-width="0"/><line x1="812" y1="378" x2="1036" y2="378" stroke="#9aa0a6"/><text x="826" y="330" font-family="Arial" font-size="12" fill="#202124" text-anchor="start">Welcome to the Restaurant Revi</text><text x="826" y="346" font-family="Arial" font-size="12" fill="#202124" text-anchor="start">ew Platform!</text><text x="826" y="366" font-family="Arial" font-size="11" fill="#5f6368" text-anchor="start">3d ago</text><rect x="64" y="124" width="720" height="300" rx="4" fill="#f1f3f4" stroke="#9aa0a6" stroke-width="1.5"/><text x="424" y="280" font-family="Arial" font-size="13" fill="#5f6368" text-anchor="middle">[ page content — e.g. Browse grid ]</text><text x="924.0" y="448" font-family="Arial" font-size="11" fill="#5f6368" text-anchor="start"></text><text x="40" y="548" font-family="Arial" font-size="11" fill="#444" text-anchor="start">Empty-state (no notifications): panel shows "No notifications yet."  Unread badge hidden when count = 0.</text></svg>